Coordinates
version=1
nRows=6
nColumns=36
inDegrees=yes

Units are S.I. units (second, meters, Newtons, ...)
If the header above contains a line with 'inDegrees', this indicates whether rotational values are in degrees (yes) or radians (no).

endheader
time	pelvis_tilt	pelvis_list	pelvis_rotation	pelvis_tx	pelvis_ty	pelvis_tz	hip_flexion_r	hip_adduction_r	hip_rotation_r	knee_angle_r	knee_angle_r_beta	ankle_angle_r	subtalar_angle_r	mtp_angle_r	hip_flexion_l	hip_adduction_l	hip_rotation_l	knee_angle_l	knee_angle_l_beta	ankle_angle_l	subtalar_angle_l	mtp_angle_l	lumbar_extension	lumbar_bending	lumbar_rotation	arm_flex_r	arm_add_r	arm_rot_r	elbow_flex_r	pro_sup_r	arm_flex_l	arm_add_l	arm_rot_l	elbow_flex_l	pro_sup_l
      7.40000000	      1.76669061	     -1.46920341	      1.95240883	     -0.12344179	      0.41901055	      0.13511450	     78.72515211	    -21.29363826	      8.80184116	    134.76008597	      2.35200720	     48.80759757	      0.35587482	     -7.49999987	     81.60514388	    -23.21328427	     17.53883445	    133.94092034	      2.33771006	     48.26235979	      5.40425168	     -7.49999987	    -47.48783587	     -0.36493628	     -3.16752650	    115.24319810	      5.50313029	     71.10033751	    116.57183313	     89.10658315	    109.80137955	      5.94479758	     69.89948500	    117.40023745	     81.56531247
      7.41666670	      1.53731787	     -1.28607921	      1.57047716	     -0.12865252	      0.41128226	      0.13576727	     80.33908921	    -20.99670456	      9.89195353	    135.77994762	      2.36980714	     48.78926832	      0.74581912	     -7.49999987	     83.08918664	    -23.56682510	     18.03670713	    135.15438158	      2.35888896	     48.26977856	      5.96102096	     -7.49999987	    -47.70920707	     -0.75087563	     -2.54709197	    115.28460594	      5.33661389	     71.34428902	    117.24783140	     89.80088086	    109.88752623	      6.64933817	     71.17574845	    119.91383675	     82.21666335
      7.43333330	      1.25916574	     -1.07243554	      1.44207836	     -0.13058266	      0.40544907	      0.13723568	     82.22403602	    -20.80928430	     10.89768155	    136.69950744	      2.38585649	     48.83788184	      1.26953546	     -7.49999987	     84.65564874	    -23.56841195	     18.60407991	    136.12766557	      2.37587597	     48.21987102	      6.45766163	     -7.49999987	    -47.66733714	     -1.03144361	     -2.18813104	    115.04026870	      5.10839115	     70.93694606	    117.89020530	     98.95526519	    109.89408460	      6.89312238	     72.11568322	    121.07916582	     91.15118226
      7.45000000	      0.45360798	     -0.88895922	      1.08047936	     -0.12796389	      0.40213642	      0.13819965	     84.03127173	    -20.38094301	     11.60376087	    137.22023915	      2.39494497	     48.83818685	      1.72397412	     -7.49999987	     86.08450697	    -23.76352420	     19.07161444	    136.72205653	      2.38625005	     48.00645570	      6.60472825	     -7.49999987	    -47.22981220	     -1.40156388	     -1.52249926	    114.94362228	      4.88923128	     71.16334133	    118.87393632	     98.82861309	    110.17623710	      7.32027520	     72.78731780	    119.16519582	     90.45219066
      7.46666670	      0.15382828	     -0.72293642	      0.57150858	     -0.13056966	      0.40019728	      0.13840637	     85.25359663	    -19.72412282	     12.06959487	    137.45260133	      2.39900046	     48.77518564	      2.03617608	     -7.49999987	     86.83591455	    -23.90852361	     19.13581936	    137.04658865	      2.39191420	     47.89808709	      6.47043654	     -7.49999987	    -47.14891193	     -1.83020433	     -0.92870861	    114.77465539	      4.76569646	     71.14220234	    119.37813340	     98.83958474	    110.24940042	      7.42128451	     72.69172596	    117.36352143	     89.38457566
      7.48333330	     -0.11581357	     -0.64054443	      0.26949513	     -0.12924690	      0.40174863	      0.13942177	     85.88960313	    -19.12931332	     12.24288102	    137.41605035	      2.39836252	     48.63305078	      1.89194695	     -7.49999987	     86.99014045	    -24.00464627	     19.10590400	    136.94970310	      2.39022323	     47.65700585	      6.36006031	     -7.49999987	    -47.03060786	     -2.17513090	     -0.51284150	    114.53014753	      4.80111435	     71.07914648	    120.08823726	     99.18804866	    110.02449852	      7.45461236	     72.42691002	    116.48285688	     88.50381062
